<svg xmlns="http://www.w3.org/2000/svg" xmlns:xlink="http://www.w3.org/1999/xlink" viewBox="0 0 89 20"><g transform="translate(0 -0.002)"><path d="M 0 20.002 L 0 0.002 L 88.571 0.002 L 88.571 20.002 Z" fill="transparent"></path><g transform="translate(0.002 0)"><path d="M 37.499 1.296 L 37.45 1.296 C 37.439 1.047 37.327 0.84 37.113 0.673 C 36.899 0.506 36.64 0.422 36.335 0.422 L 36.105 0.422 L 36.105 0.26 L 37.499 0.26 Z M 37.499 8.934 L 37.499 9.97 L 36.105 9.97 L 36.105 9.807 L 36.335 9.807 C 36.64 9.807 36.901 9.722 37.113 9.548 C 37.327 9.376 37.439 9.169 37.45 8.934 Z M 38.485 0.262 L 38.485 9.97 L 37.452 9.97 L 37.452 0.262 Z M 38.436 1.296 L 38.436 0.262 L 39.829 0.262 L 39.814 0.425 L 39.6 0.425 C 39.294 0.425 39.033 0.508 38.821 0.675 C 38.607 0.843 38.496 1.052 38.485 1.298 L 38.436 1.298 Z M 38.436 8.934 L 38.485 8.934 C 38.496 9.172 38.607 9.376 38.821 9.548 C 39.035 9.722 39.294 9.807 39.6 9.807 L 39.814 9.807 L 39.829 9.97 L 38.436 9.97 Z" fill="rgb(255,255,255)"></path><path d="M 42.519 8.967 L 42.519 9.97 L 41.288 9.97 L 41.288 9.807 L 41.567 9.807 C 41.819 9.807 42.031 9.726 42.207 9.565 C 42.381 9.403 42.47 9.205 42.47 8.967 Z M 42.486 0.018 L 43.191 0.924 L 43.206 9.97 L 42.468 9.97 L 42.468 2.042 C 42.468 1.492 42.419 0.816 42.321 0.02 L 42.486 0.02 Z M 42.486 0.018 L 51.574 8.463 L 51.74 10.195 L 42.651 1.701 Z M 43.208 8.967 C 43.208 9.205 43.3 9.405 43.478 9.565 C 43.659 9.728 43.869 9.807 44.11 9.807 L 44.388 9.807 L 44.388 9.97 L 43.157 9.97 L 43.157 8.967 L 43.206 8.967 Z M 51.017 1.265 C 51.006 1.027 50.912 0.827 50.738 0.667 C 50.562 0.504 50.35 0.425 50.098 0.425 L 49.819 0.425 L 49.819 0.262 L 51.05 0.262 L 51.05 1.265 Z M 51.74 0.262 L 51.74 8.127 C 51.74 8.472 51.751 8.804 51.773 9.121 C 51.795 9.44 51.833 9.799 51.887 10.197 L 51.74 10.197 L 51.017 9.339 L 51.017 0.262 Z M 51.691 1.265 L 51.691 0.262 L 52.922 0.262 L 52.922 0.425 L 52.643 0.425 C 52.402 0.425 52.192 0.506 52.012 0.667 C 51.831 0.829 51.742 1.027 51.742 1.265 L 51.693 1.265 Z" fill="rgb(255,255,255)"></path><path d="M 55.612 1.28 L 55.578 1.28 C 55.567 1.032 55.473 0.827 55.299 0.667 C 55.123 0.504 54.9 0.425 54.625 0.425 L 54.396 0.425 L 54.396 0.262 L 55.823 0.262 L 55.609 1.28 Z M 55.612 8.934 L 55.825 9.97 L 54.398 9.97 L 54.398 9.807 L 54.628 9.807 C 54.902 9.807 55.125 9.722 55.302 9.548 C 55.478 9.374 55.569 9.169 55.58 8.934 L 55.613 8.934 Z M 56.628 0.262 L 56.628 9.97 L 55.578 9.97 L 55.578 0.262 Z M 61.024 0.262 L 61.024 0.763 L 56.595 0.763 L 56.595 0.262 Z M 60.271 4.873 L 60.271 5.359 L 56.595 5.359 L 56.595 4.873 Z M 61.04 9.469 L 61.007 9.97 L 56.593 9.97 L 56.593 9.469 L 61.038 9.469 Z M 61.959 7.656 L 61.056 9.97 L 58.562 9.97 L 59.12 9.469 C 59.666 9.469 60.105 9.389 60.44 9.233 C 60.774 9.077 61.044 8.862 61.252 8.587 C 61.459 8.312 61.64 8.001 61.794 7.656 Z M 61.024 0.002 L 61.024 0.422 L 59.155 0.26 C 59.494 0.26 59.856 0.231 60.237 0.169 C 60.621 0.11 60.882 0.053 61.024 0 Z M 60.271 3.982 L 60.271 4.904 L 59.416 4.904 L 59.416 4.871 C 59.646 4.871 59.815 4.803 59.925 4.668 C 60.034 4.534 60.09 4.376 60.09 4.191 L 60.09 3.98 L 60.271 3.98 Z M 60.271 5.326 L 60.271 6.248 L 60.09 6.248 L 60.09 6.037 C 60.09 5.854 60.034 5.694 59.925 5.559 C 59.815 5.425 59.646 5.357 59.416 5.357 L 59.416 5.324 L 60.271 5.324 Z M 61.024 0.715 L 61.024 1.833 L 60.844 1.833 L 60.844 1.591 C 60.844 1.364 60.77 1.17 60.623 1.008 C 60.476 0.845 60.275 0.766 60.025 0.766 L 60.025 0.717 L 61.027 0.717 Z" fill="rgb(255,255,255)"></path><path d="M 66.29 0.035 C 66.596 0.035 66.863 0.046 67.093 0.068 C 67.323 0.09 67.522 0.114 67.691 0.141 C 67.861 0.167 68.008 0.2 68.135 0.238 C 68.26 0.275 68.373 0.31 68.472 0.343 L 68.487 1.945 L 68.291 1.945 C 68.291 1.503 68.137 1.155 67.832 0.902 C 67.526 0.649 67.049 0.521 66.404 0.521 C 65.858 0.521 65.389 0.669 65.001 0.966 C 64.613 1.263 64.423 1.626 64.434 2.057 C 64.434 2.198 64.453 2.341 64.493 2.486 C 64.533 2.631 64.597 2.774 64.689 2.915 C 64.783 3.056 64.91 3.197 65.075 3.335 L 68.389 5.859 C 68.641 6.063 68.826 6.325 68.947 6.644 C 69.067 6.963 69.132 7.278 69.143 7.59 C 69.154 8.065 69.029 8.501 68.766 8.901 C 68.503 9.299 68.151 9.616 67.709 9.847 C 67.265 10.078 66.776 10.195 66.241 10.195 C 65.924 10.195 65.581 10.168 65.215 10.113 C 64.85 10.058 64.508 9.977 64.189 9.862 C 63.873 9.75 63.609 9.607 63.402 9.433 C 63.369 9.282 63.353 9.09 63.353 8.859 C 63.353 8.628 63.371 8.382 63.411 8.122 C 63.451 7.863 63.5 7.632 63.567 7.427 L 63.763 7.427 C 63.719 7.913 63.79 8.327 63.977 8.672 C 64.163 9.018 64.437 9.279 64.798 9.458 C 65.16 9.636 65.579 9.719 66.061 9.708 C 66.739 9.686 67.272 9.517 67.66 9.198 C 68.048 8.879 68.242 8.457 68.242 7.929 C 68.242 7.669 68.195 7.436 68.101 7.225 C 68.008 7.014 67.858 6.818 67.651 6.635 L 64.37 4.143 C 64.064 3.883 63.857 3.597 63.748 3.285 C 63.638 2.972 63.583 2.675 63.583 2.396 C 63.583 1.954 63.703 1.553 63.944 1.199 C 64.185 0.843 64.511 0.559 64.921 0.35 C 65.331 0.139 65.788 0.035 66.29 0.035 Z M 68.456 0.18 L 68.472 0.471 L 67.307 0.471 L 67.307 0.18 Z" fill="rgb(255,255,255)"></path><path d="M 73.869 0.035 C 74.174 0.035 74.442 0.046 74.672 0.068 C 74.902 0.09 75.1 0.114 75.27 0.141 C 75.439 0.167 75.586 0.2 75.713 0.238 C 75.838 0.275 75.952 0.31 76.05 0.343 L 76.066 1.945 L 75.87 1.945 C 75.87 1.503 75.716 1.155 75.41 0.902 C 75.104 0.649 74.627 0.521 73.983 0.521 C 73.436 0.521 72.968 0.669 72.58 0.966 C 72.192 1.263 72.002 1.626 72.013 2.057 C 72.013 2.198 72.031 2.341 72.071 2.486 C 72.112 2.631 72.176 2.774 72.268 2.915 C 72.361 3.056 72.488 3.197 72.653 3.335 L 75.968 5.859 C 76.22 6.063 76.405 6.325 76.525 6.644 C 76.646 6.963 76.711 7.278 76.722 7.59 C 76.733 8.065 76.608 8.501 76.345 8.901 C 76.082 9.299 75.729 9.616 75.287 9.847 C 74.843 10.078 74.355 10.195 73.82 10.195 C 73.503 10.195 73.16 10.168 72.794 10.113 C 72.428 10.058 72.087 9.977 71.768 9.862 C 71.451 9.75 71.188 9.607 70.981 9.433 C 70.947 9.282 70.932 9.09 70.932 8.859 C 70.932 8.628 70.95 8.382 70.99 8.122 C 71.03 7.863 71.079 7.632 71.146 7.427 L 71.342 7.427 C 71.297 7.913 71.369 8.327 71.556 8.672 C 71.741 9.018 72.015 9.279 72.377 9.458 C 72.738 9.636 73.157 9.719 73.639 9.708 C 74.317 9.686 74.85 9.517 75.238 9.198 C 75.626 8.879 75.821 8.457 75.821 7.929 C 75.821 7.669 75.773 7.436 75.68 7.225 C 75.586 7.014 75.437 6.818 75.23 6.635 L 71.949 4.143 C 71.643 3.883 71.436 3.597 71.326 3.285 C 71.217 2.972 71.162 2.675 71.162 2.396 C 71.162 1.954 71.282 1.553 71.523 1.199 C 71.763 0.843 72.089 0.559 72.5 0.35 C 72.91 0.139 73.367 0.035 73.869 0.035 Z M 76.034 0.18 L 76.05 0.471 L 74.886 0.471 L 74.886 0.18 Z" fill="rgb(255,255,255)"></path><path d="M 79.955 8.789 C 79.835 9.112 79.851 9.363 80.005 9.541 C 80.159 9.719 80.333 9.807 80.529 9.807 L 80.661 9.807 L 80.661 9.97 L 77.527 9.97 L 77.527 9.807 L 77.658 9.807 C 77.888 9.807 78.122 9.728 78.363 9.572 C 78.604 9.416 78.812 9.154 78.985 8.787 L 79.953 8.787 Z M 83.123 0.035 L 83.236 1.153 L 79.481 9.924 L 78.448 9.924 L 82.335 1.703 C 82.456 1.443 82.556 1.221 82.639 1.032 C 82.721 0.843 82.795 0.658 82.86 0.473 C 82.924 0.29 82.964 0.143 82.973 0.035 L 83.121 0.035 Z M 85.059 6.2 L 85.059 6.686 L 80.712 6.686 L 80.712 6.2 Z M 83.123 0.035 L 87.635 9.873 L 86.339 9.873 L 82.844 1.476 Z M 85.895 8.789 L 87.142 8.789 C 87.307 9.156 87.508 9.418 87.748 9.574 C 87.989 9.73 88.219 9.81 88.438 9.81 L 88.569 9.81 L 88.569 9.972 L 85.206 9.972 L 85.206 9.81 L 85.337 9.81 C 85.523 9.81 85.692 9.722 85.846 9.543 C 86 9.365 86.015 9.114 85.895 8.791 Z" fill="rgb(255,255,255)"></path><path d="M 37.338 14.372 L 37.307 14.372 C 37.3 14.216 37.24 14.084 37.126 13.979 C 37.013 13.873 36.872 13.82 36.707 13.82 L 36.582 13.82 L 36.582 13.717 L 37.34 13.717 L 37.34 14.372 Z M 37.338 19.204 L 37.338 19.859 L 36.58 19.859 L 36.58 19.758 L 36.705 19.758 C 36.872 19.758 37.01 19.703 37.124 19.593 C 37.238 19.483 37.298 19.355 37.305 19.204 L 37.336 19.204 Z M 37.972 13.717 L 37.972 19.859 L 37.307 19.859 L 37.307 13.717 Z M 41.904 16.676 L 41.904 16.984 L 37.856 16.984 L 37.856 16.676 Z M 37.94 14.372 L 37.94 13.717 L 38.699 13.717 L 38.699 13.82 L 38.574 13.82 C 38.409 13.82 38.266 13.873 38.148 13.979 C 38.03 14.084 37.972 14.216 37.972 14.372 Z M 37.94 19.204 L 37.972 19.204 C 37.972 19.353 38.03 19.483 38.148 19.593 C 38.266 19.703 38.407 19.758 38.574 19.758 L 38.699 19.758 L 38.699 19.859 L 37.94 19.859 Z M 41.832 14.372 L 41.801 14.372 C 41.794 14.216 41.734 14.084 41.62 13.979 C 41.507 13.873 41.366 13.82 41.201 13.82 L 41.076 13.82 L 41.076 13.717 L 41.835 13.717 L 41.835 14.372 Z M 41.832 19.204 L 41.832 19.859 L 41.074 19.859 L 41.074 19.758 L 41.199 19.758 C 41.366 19.758 41.504 19.703 41.618 19.593 C 41.732 19.483 41.792 19.355 41.799 19.204 L 41.83 19.204 Z M 42.466 13.717 L 42.466 19.859 L 41.801 19.859 L 41.801 13.717 Z M 42.435 14.372 L 42.435 13.717 L 43.193 13.717 L 43.193 13.82 L 43.068 13.82 C 42.901 13.82 42.762 13.873 42.649 13.979 C 42.535 14.084 42.475 14.216 42.468 14.372 L 42.437 14.372 Z M 42.435 19.204 L 42.466 19.204 C 42.472 19.353 42.533 19.483 42.646 19.593 C 42.76 19.703 42.901 19.758 43.066 19.758 L 43.191 19.758 L 43.191 19.859 L 42.432 19.859 L 42.432 19.204 Z" fill="rgb(255,255,255)"></path><path d="M 47.613 13.574 C 48.097 13.574 48.553 13.651 48.978 13.805 C 49.404 13.959 49.777 14.179 50.1 14.465 C 50.422 14.751 50.673 15.092 50.852 15.483 C 51.033 15.875 51.122 16.311 51.122 16.788 C 51.122 17.265 51.033 17.701 50.852 18.093 C 50.671 18.484 50.422 18.825 50.1 19.111 C 49.779 19.397 49.404 19.617 48.978 19.771 C 48.553 19.925 48.097 20.002 47.613 20.002 C 47.129 20.002 46.677 19.925 46.253 19.771 C 45.831 19.617 45.459 19.397 45.138 19.111 C 44.817 18.825 44.564 18.484 44.386 18.093 C 44.208 17.701 44.116 17.265 44.116 16.788 C 44.116 16.311 44.205 15.875 44.386 15.483 C 44.567 15.092 44.817 14.751 45.138 14.465 C 45.459 14.179 45.831 13.959 46.253 13.805 C 46.674 13.651 47.127 13.574 47.613 13.574 Z M 47.613 19.696 C 48.124 19.696 48.588 19.573 49.005 19.327 C 49.42 19.08 49.748 18.739 49.991 18.304 C 50.234 17.868 50.354 17.362 50.354 16.788 C 50.354 16.214 50.234 15.701 49.991 15.268 C 49.748 14.834 49.42 14.496 49.005 14.249 C 48.59 14.003 48.126 13.88 47.613 13.88 C 47.1 13.88 46.648 14.003 46.233 14.249 C 45.818 14.496 45.49 14.834 45.247 15.268 C 45.004 15.701 44.883 16.207 44.883 16.788 C 44.883 17.369 45.004 17.866 45.247 18.304 C 45.49 18.742 45.818 19.083 46.233 19.327 C 46.648 19.573 47.107 19.696 47.613 19.696 Z" fill="rgb(255,255,255)"></path><path d="M 52.813 14.372 L 52.792 14.372 C 52.785 14.216 52.723 14.084 52.605 13.979 C 52.487 13.873 52.342 13.82 52.168 13.82 L 52.043 13.82 L 52.043 13.717 L 52.81 13.717 L 52.81 14.372 Z M 52.813 19.204 L 52.946 19.859 L 52.043 19.859 L 52.043 19.758 L 52.188 19.758 C 52.36 19.758 52.503 19.703 52.614 19.593 C 52.725 19.483 52.783 19.355 52.79 19.204 L 52.81 19.204 Z M 53.454 13.717 L 53.454 19.859 L 52.79 19.859 L 52.79 13.717 Z M 53.423 14.372 L 53.423 13.717 L 54.191 13.717 L 54.191 13.82 L 54.066 13.82 C 53.901 13.82 53.756 13.873 53.635 13.979 C 53.515 14.084 53.454 14.216 53.454 14.372 Z M 56.247 19.542 L 56.227 19.859 L 53.434 19.859 L 53.434 19.542 Z M 56.829 18.396 L 56.258 19.859 L 54.682 19.859 L 55.034 19.542 C 55.38 19.542 55.658 19.494 55.87 19.395 C 56.082 19.296 56.252 19.16 56.383 18.986 C 56.515 18.812 56.628 18.616 56.726 18.396 L 56.832 18.396 Z" fill="rgb(255,255,255)"></path><path d="M 58.105 14.383 L 58.085 14.383 C 58.078 14.221 58.018 14.084 57.904 13.979 C 57.791 13.873 57.65 13.82 57.485 13.82 L 57.36 13.82 L 57.36 13.717 L 58.107 13.717 L 58.107 14.381 Z M 58.105 19.195 L 58.105 19.859 L 57.358 19.859 L 57.358 19.758 L 57.492 19.758 C 57.657 19.758 57.797 19.701 57.906 19.589 C 58.016 19.476 58.076 19.344 58.083 19.195 L 58.103 19.195 Z M 58.758 13.717 L 58.758 19.859 L 58.085 19.859 L 58.085 13.717 Z M 60.823 13.717 C 61.508 13.717 62.1 13.84 62.599 14.084 C 63.096 14.331 63.482 14.683 63.752 15.145 C 64.022 15.607 64.156 16.152 64.156 16.788 C 64.156 17.424 64.022 17.969 63.752 18.425 C 63.482 18.882 63.099 19.234 62.599 19.485 C 62.102 19.734 61.508 19.859 60.823 19.859 L 58.613 19.859 L 58.593 19.551 L 60.823 19.551 C 61.627 19.551 62.258 19.305 62.717 18.81 C 63.177 18.315 63.406 17.642 63.406 16.788 C 63.406 15.934 63.177 15.261 62.717 14.766 C 62.258 14.271 61.627 14.025 60.823 14.025 L 58.489 14.025 L 58.489 13.717 Z" fill="rgb(255,255,255)"></path><path d="M 65.972 14.372 L 65.94 14.372 C 65.933 14.216 65.862 14.084 65.728 13.979 C 65.594 13.873 65.429 13.82 65.235 13.82 L 65.09 13.82 L 65.09 13.717 L 65.973 13.717 L 65.973 14.372 Z M 65.972 19.204 L 65.972 19.859 L 65.088 19.859 L 65.088 19.758 L 65.233 19.758 C 65.427 19.758 65.592 19.703 65.726 19.593 C 65.86 19.483 65.931 19.355 65.938 19.204 L 65.969 19.204 Z M 66.593 13.717 L 66.593 19.859 L 65.94 19.859 L 65.94 13.717 Z M 66.563 14.372 L 66.563 13.717 L 67.445 13.717 L 67.434 13.82 L 67.301 13.82 C 67.107 13.82 66.942 13.873 66.808 13.979 C 66.674 14.084 66.603 14.216 66.596 14.372 L 66.564 14.372 Z M 66.563 19.204 L 66.593 19.204 C 66.6 19.353 66.672 19.483 66.805 19.593 C 66.942 19.703 67.104 19.758 67.298 19.758 L 67.432 19.758 L 67.443 19.859 L 66.56 19.859 L 66.56 19.204 Z" fill="rgb(255,255,255)"></path><path d="M 69.147 19.226 L 69.147 19.859 L 68.369 19.859 L 68.369 19.758 L 68.545 19.758 C 68.703 19.758 68.84 19.707 68.949 19.604 C 69.06 19.501 69.114 19.375 69.114 19.226 L 69.145 19.226 Z M 69.127 13.563 L 69.573 14.137 L 69.584 19.859 L 69.118 19.859 L 69.118 14.843 C 69.118 14.496 69.087 14.069 69.025 13.563 Z M 69.127 13.563 L 74.877 18.907 L 74.982 20.002 L 69.232 14.628 L 69.13 13.563 Z M 69.582 19.226 C 69.582 19.375 69.64 19.503 69.754 19.604 C 69.868 19.705 70.002 19.758 70.153 19.758 L 70.33 19.758 L 70.33 19.859 L 69.551 19.859 L 69.551 19.226 Z M 74.523 14.353 C 74.516 14.203 74.458 14.075 74.346 13.974 C 74.235 13.873 74.101 13.82 73.943 13.82 L 73.766 13.82 L 73.766 13.717 L 74.545 13.717 L 74.545 14.35 L 74.525 14.35 Z M 74.98 13.717 L 74.98 18.691 C 74.98 18.909 74.986 19.12 75 19.32 C 75.013 19.523 75.038 19.749 75.073 20 L 74.98 20 L 74.523 19.457 L 74.523 13.715 L 74.98 13.715 Z M 74.949 14.353 L 74.949 13.719 L 75.727 13.719 L 75.727 13.822 L 75.551 13.822 C 75.399 13.822 75.265 13.873 75.152 13.976 C 75.038 14.08 74.98 14.205 74.98 14.355 L 74.949 14.355 Z" fill="rgb(255,255,255)"></path><path d="M 79.96 13.574 C 80.279 13.574 80.578 13.596 80.859 13.64 C 81.14 13.684 81.405 13.752 81.657 13.844 C 81.909 13.937 82.15 14.053 82.378 14.199 L 82.605 15.642 L 82.512 15.642 C 82.413 15.239 82.257 14.909 82.039 14.65 C 81.82 14.39 81.539 14.199 81.193 14.071 C 80.848 13.946 80.433 13.882 79.949 13.882 C 79.423 13.882 78.961 14.001 78.564 14.236 C 78.167 14.471 77.857 14.806 77.636 15.239 C 77.415 15.673 77.304 16.19 77.304 16.79 C 77.304 17.391 77.415 17.899 77.636 18.337 C 77.857 18.775 78.169 19.109 78.571 19.344 C 78.972 19.58 79.436 19.699 79.963 19.699 C 80.252 19.699 80.529 19.668 80.792 19.606 C 81.055 19.545 81.309 19.448 81.555 19.314 C 81.8 19.179 82.03 19.012 82.244 18.808 L 82.255 17.446 C 82.262 17.316 82.222 17.217 82.134 17.149 C 82.048 17.081 81.93 17.048 81.775 17.048 L 81.631 17.048 L 81.631 16.944 L 83.531 16.944 L 83.531 17.048 L 83.386 17.048 C 83.073 17.048 82.92 17.184 82.92 17.457 L 82.92 18.684 C 82.762 18.882 82.543 19.085 82.266 19.289 C 81.99 19.494 81.66 19.666 81.276 19.802 C 80.893 19.938 80.455 20.007 79.963 20.007 C 79.278 20 78.68 19.866 78.171 19.608 C 77.663 19.349 77.266 18.981 76.983 18.502 C 76.699 18.024 76.556 17.455 76.556 16.792 C 76.556 16.13 76.699 15.549 76.983 15.072 C 77.266 14.595 77.663 14.225 78.176 13.965 C 78.686 13.706 79.282 13.576 79.96 13.576 Z" fill="rgb(255,255,255)"></path><path d="M 86.167 13.574 C 86.361 13.574 86.531 13.581 86.676 13.594 C 86.821 13.607 86.948 13.622 87.055 13.64 C 87.162 13.658 87.255 13.677 87.336 13.702 C 87.416 13.726 87.485 13.748 87.548 13.767 L 87.559 14.782 L 87.434 14.782 C 87.434 14.502 87.338 14.282 87.144 14.122 C 86.95 13.961 86.649 13.882 86.241 13.882 C 85.895 13.882 85.598 13.976 85.353 14.163 C 85.108 14.35 84.987 14.581 84.994 14.854 C 84.994 14.942 85.005 15.032 85.03 15.125 C 85.054 15.217 85.094 15.307 85.154 15.395 C 85.213 15.483 85.295 15.574 85.398 15.662 L 87.494 17.259 C 87.653 17.389 87.771 17.554 87.846 17.756 C 87.923 17.958 87.965 18.156 87.972 18.354 C 87.978 18.656 87.898 18.931 87.733 19.184 C 87.565 19.437 87.343 19.637 87.063 19.782 C 86.783 19.93 86.475 20.002 86.136 20.002 C 85.935 20.002 85.719 19.985 85.487 19.952 C 85.255 19.916 85.039 19.864 84.838 19.793 C 84.637 19.721 84.472 19.63 84.341 19.523 C 84.321 19.428 84.309 19.307 84.309 19.16 C 84.309 19.012 84.32 18.858 84.345 18.693 C 84.37 18.528 84.403 18.383 84.443 18.253 L 84.568 18.253 C 84.541 18.561 84.586 18.823 84.702 19.041 C 84.82 19.259 84.992 19.426 85.222 19.538 C 85.449 19.65 85.717 19.703 86.02 19.696 C 86.448 19.683 86.785 19.575 87.033 19.373 C 87.28 19.171 87.401 18.904 87.401 18.57 C 87.401 18.407 87.372 18.258 87.311 18.126 C 87.253 17.991 87.157 17.868 87.026 17.752 L 84.949 16.174 C 84.755 16.009 84.623 15.829 84.554 15.631 C 84.485 15.433 84.452 15.246 84.452 15.068 C 84.452 14.788 84.528 14.535 84.68 14.311 C 84.831 14.086 85.039 13.906 85.297 13.774 C 85.556 13.642 85.846 13.574 86.165 13.574 Z M 87.536 13.666 L 87.548 13.851 L 86.812 13.666 L 86.812 13.666 L 87.539 13.666 Z" fill="rgb(255,255,255)"></path><path d="M 21.175 15.041 L 21.213 15.079 C 21.213 15.052 21.199 15.041 21.175 15.041 Z M 12.477 19.237 C 12.501 19.237 12.514 19.248 12.514 19.274 L 12.514 19.237 Z M 14.062 10.617 C 13.933 10.947 13.81 11.273 13.694 11.59 C 13.578 11.906 13.456 12.245 13.326 12.599 C 13.224 12.905 13.132 13.202 13.056 13.495 C 12.978 13.787 12.903 14.086 12.824 14.39 C 12.927 14.364 13.018 14.339 13.094 14.313 C 13.172 14.287 13.248 14.262 13.326 14.236 C 13.378 14.185 13.442 14.152 13.52 14.141 C 13.598 14.128 13.663 14.097 13.714 14.047 L 13.752 14.047 C 13.779 14.02 13.797 14.009 13.81 14.009 C 13.824 14.009 13.841 13.996 13.868 13.972 C 13.946 13.972 14.011 13.946 14.062 13.895 C 14.707 13.565 15.325 13.196 15.918 12.789 C 16.511 12.382 17.091 11.961 17.658 11.53 C 18.895 10.487 20.004 9.42 20.983 8.327 C 21.474 7.792 21.938 7.247 22.375 6.688 C 22.812 6.129 23.213 5.544 23.572 4.935 C 23.726 4.655 23.869 4.393 23.998 4.154 C 24.128 3.912 24.244 3.652 24.346 3.373 L 24.462 3.029 C 24.489 2.979 24.5 2.941 24.5 2.915 C 24.5 2.889 24.514 2.864 24.538 2.838 L 24.538 2.724 C 24.616 2.545 24.654 2.343 24.654 2.114 L 24.654 1.619 C 24.603 1.518 24.576 1.441 24.576 1.39 C 24.549 1.364 24.538 1.34 24.538 1.313 C 24.538 1.313 24.525 1.287 24.5 1.236 L 24.422 1.159 L 24.422 1.122 L 24.384 1.122 L 24.306 1.045 C 24.28 1.045 24.255 1.032 24.228 1.008 C 24.201 1.008 24.19 0.994 24.19 0.97 C 24.139 0.97 24.106 0.964 24.094 0.95 C 24.081 0.937 24.063 0.931 24.036 0.931 L 23.998 0.931 C 23.947 0.904 23.883 0.893 23.804 0.893 C 23.778 0.893 23.76 0.887 23.746 0.873 C 23.733 0.86 23.702 0.854 23.651 0.854 L 23.109 0.854 C 22.955 0.854 22.812 0.867 22.683 0.891 L 22.567 0.891 C 22.464 0.891 22.386 0.904 22.335 0.928 C 22.232 0.928 22.103 0.955 21.949 1.005 C 21.819 1.056 21.69 1.1 21.563 1.14 C 21.434 1.177 21.304 1.223 21.177 1.274 L 21.099 1.311 C 21.072 1.311 21.048 1.324 21.021 1.349 C 20.918 1.399 20.867 1.426 20.867 1.426 C 20.764 1.476 20.635 1.553 20.481 1.654 C 20.352 1.731 20.223 1.806 20.095 1.883 C 19.966 1.96 19.85 2.048 19.747 2.149 C 19.464 2.328 19.212 2.523 18.994 2.741 C 18.775 2.957 18.55 3.168 18.318 3.37 C 18.215 3.498 18.117 3.619 18.028 3.733 C 17.939 3.848 17.827 3.969 17.7 4.096 C 17.597 4.224 17.495 4.356 17.39 4.497 C 17.287 4.638 17.185 4.783 17.08 4.935 C 16.616 5.544 16.23 6.129 15.92 6.688 C 15.559 7.324 15.224 7.973 14.914 8.633 C 14.604 9.293 14.321 9.955 14.065 10.615 Z M 33.506 14.812 C 33.585 14.863 33.667 14.953 33.758 15.079 C 33.848 15.206 33.83 15.294 33.7 15.345 C 32.567 15.93 31.446 16.462 30.337 16.946 C 29.59 17.252 28.829 17.538 28.055 17.804 C 27.282 18.071 26.496 18.242 25.698 18.319 C 25.207 18.37 24.732 18.35 24.268 18.262 C 23.804 18.174 23.367 17.989 22.955 17.71 C 22.671 17.507 22.433 17.265 22.239 16.986 C 22.045 16.707 21.884 16.414 21.755 16.108 C 21.728 16.058 21.703 15.994 21.677 15.917 C 21.65 15.84 21.625 15.776 21.599 15.725 C 21.547 15.675 21.521 15.624 21.521 15.574 C 21.494 15.547 21.483 15.523 21.483 15.497 L 21.445 15.459 C 21.418 15.409 21.393 15.358 21.367 15.307 C 21.34 15.257 21.315 15.206 21.289 15.156 L 21.173 15.041 L 21.173 15.004 L 20.979 15.004 C 20.979 15.03 20.952 15.041 20.901 15.041 C 20.849 15.041 20.798 15.054 20.747 15.079 L 20.399 15.193 C 20.296 15.244 20.218 15.27 20.167 15.27 L 20.167 15.307 L 20.129 15.307 C 20.102 15.307 20.091 15.314 20.091 15.327 C 20.091 15.34 20.078 15.347 20.053 15.347 C 19.718 15.499 19.435 15.664 19.203 15.842 C 18.534 16.249 17.896 16.68 17.29 17.138 C 16.683 17.595 16.072 18.04 15.454 18.473 C 14.939 18.88 14.424 19.237 13.908 19.54 C 13.728 19.641 13.54 19.743 13.349 19.846 C 13.155 19.947 12.956 19.987 12.749 19.96 C 12.311 19.934 11.968 19.776 11.725 19.483 C 11.48 19.19 11.332 18.854 11.281 18.473 C 11.203 18.016 11.185 17.558 11.223 17.1 C 11.261 16.643 11.319 16.185 11.397 15.728 C 11.5 15.092 11.629 14.463 11.783 13.84 C 11.937 13.218 12.117 12.602 12.325 11.99 C 12.557 11.277 12.802 10.586 13.059 9.911 C 13.317 9.238 13.612 8.569 13.949 7.909 C 14.259 7.249 14.6 6.607 14.972 5.984 C 15.347 5.361 15.753 4.756 16.19 4.173 C 16.603 3.639 17.033 3.124 17.486 2.629 C 17.936 2.134 18.434 1.694 18.974 1.313 C 19.489 0.957 20.031 0.671 20.597 0.455 C 21.164 0.24 21.744 0.106 22.337 0.055 C 22.903 0.004 23.47 0.055 24.039 0.207 C 24.605 0.359 25.069 0.678 25.43 1.159 C 25.689 1.54 25.792 1.96 25.74 2.418 C 25.689 2.875 25.598 3.32 25.471 3.753 C 25.265 4.338 24.993 4.897 24.659 5.432 C 24.324 5.966 23.963 6.488 23.577 6.996 C 22.676 8.217 21.643 9.398 20.483 10.542 C 19.89 11.077 19.297 11.598 18.706 12.107 C 18.113 12.615 17.495 13.086 16.85 13.517 C 16.284 13.873 15.711 14.203 15.131 14.509 C 14.551 14.815 13.926 15.068 13.255 15.272 C 13.074 15.323 12.88 15.272 12.675 15.12 C 12.47 15.959 12.354 16.786 12.327 17.6 C 12.3 17.829 12.3 18.044 12.327 18.249 L 12.327 18.629 C 12.327 18.656 12.334 18.68 12.347 18.706 C 12.361 18.733 12.367 18.733 12.367 18.706 C 12.367 18.808 12.394 18.935 12.445 19.087 L 12.445 19.124 L 12.523 19.124 C 12.55 19.098 12.575 19.087 12.601 19.087 C 12.601 19.087 12.653 19.061 12.755 19.01 C 12.858 18.959 12.961 18.896 13.065 18.819 C 13.168 18.742 13.271 18.678 13.375 18.627 C 13.969 18.22 14.549 17.807 15.115 17.389 C 15.682 16.968 16.261 16.544 16.855 16.11 C 17.138 15.908 17.428 15.703 17.725 15.501 C 18.021 15.299 18.324 15.107 18.632 14.929 C 18.891 14.801 19.147 14.669 19.406 14.529 C 19.665 14.388 19.935 14.293 20.218 14.243 C 20.887 14.115 21.456 14.28 21.92 14.738 C 22.1 14.889 22.254 15.107 22.384 15.387 C 22.462 15.514 22.531 15.642 22.596 15.767 C 22.66 15.895 22.718 16.022 22.77 16.148 C 22.77 16.174 22.796 16.236 22.848 16.339 L 22.848 16.377 L 22.886 16.414 C 22.912 16.491 22.975 16.605 23.08 16.757 C 23.106 16.808 23.124 16.841 23.138 16.852 C 23.151 16.865 23.169 16.896 23.196 16.946 L 23.233 16.984 C 23.247 17.018 23.273 17.05 23.312 17.078 C 23.338 17.092 23.363 17.109 23.39 17.136 C 23.441 17.186 23.468 17.213 23.468 17.213 C 23.468 17.213 23.494 17.239 23.546 17.29 C 23.572 17.316 23.597 17.327 23.624 17.327 C 23.651 17.327 23.675 17.34 23.702 17.364 C 23.729 17.391 23.767 17.402 23.818 17.402 C 23.845 17.428 23.883 17.439 23.934 17.439 C 23.985 17.466 24.03 17.477 24.07 17.477 C 24.11 17.477 24.155 17.49 24.206 17.514 L 24.4 17.514 C 24.529 17.54 24.652 17.545 24.768 17.534 C 24.884 17.521 25.007 17.514 25.136 17.514 C 25.214 17.514 25.279 17.501 25.33 17.477 L 25.446 17.477 C 25.524 17.45 25.6 17.439 25.678 17.439 C 25.756 17.439 25.821 17.426 25.872 17.402 C 26.053 17.351 26.227 17.307 26.394 17.268 C 26.561 17.23 26.735 17.184 26.916 17.133 C 27.946 16.854 28.945 16.491 29.911 16.047 C 30.877 15.602 31.838 15.138 32.79 14.654 C 32.92 14.603 33.049 14.597 33.176 14.634 C 33.306 14.672 33.422 14.729 33.524 14.806 Z" fill="rgb(255,255,255)"></path><path d="M 3.091 9.671 C 3.04 9.57 3.04 9.493 3.091 9.442 L 3.129 9.405 C 3.129 9.253 3.156 9.049 3.207 8.796 C 3.259 8.593 3.317 8.382 3.381 8.166 C 3.446 7.951 3.569 7.779 3.749 7.652 C 3.981 7.524 4.258 7.537 4.581 7.689 C 4.902 7.841 5.052 8.059 5.025 8.338 C 4.998 8.54 4.94 8.725 4.851 8.89 C 4.762 9.055 4.664 9.213 4.561 9.367 C 4.458 9.519 4.329 9.697 4.175 9.902 L 4.175 10.168 C 4.175 10.296 4.111 10.366 3.981 10.377 C 3.707 10.404 3.439 10.281 3.247 10.091 C 3.145 9.99 3.093 9.889 3.093 9.785 L 3.093 9.671 Z M 10.842 16.249 C 9.187 16.907 7.501 17.496 5.797 18.022 C 4.971 18.277 4.135 18.467 3.283 18.594 C 3 18.645 2.696 18.671 2.375 18.671 C 2.054 18.671 1.751 18.621 1.468 18.519 C 1.004 18.341 0.642 18.062 0.386 17.681 C 0.129 17.301 0 16.867 0 16.385 C 0 15.928 0.065 15.477 0.194 15.032 C 0.323 14.588 0.491 14.161 0.696 13.754 C 0.901 13.27 1.133 12.826 1.392 12.419 C 1.443 12.318 1.539 12.267 1.682 12.267 C 1.824 12.267 1.958 12.305 2.088 12.382 C 2.217 12.459 2.32 12.547 2.398 12.648 C 2.476 12.749 2.476 12.85 2.398 12.954 C 2.398 13.004 2.384 13.042 2.36 13.068 C 2.025 13.653 1.742 14.225 1.51 14.784 C 1.432 15.013 1.367 15.222 1.316 15.413 C 1.265 15.604 1.213 15.813 1.162 16.042 C 1.111 16.297 1.084 16.513 1.084 16.691 L 1.084 16.997 C 1.084 17.048 1.097 17.085 1.122 17.111 L 1.122 17.188 C 1.149 17.239 1.16 17.283 1.16 17.323 C 1.16 17.362 1.173 17.406 1.198 17.457 C 1.236 17.534 1.262 17.598 1.314 17.648 L 1.314 17.686 L 1.508 17.83 L 2.085 17.875 C 2.215 17.875 2.344 17.862 2.471 17.837 C 2.523 17.837 2.56 17.824 2.587 17.8 C 2.674 17.8 2.779 17.8 2.857 17.763 C 2.986 17.763 3.154 17.736 3.359 17.686 C 4.235 17.483 5.092 17.248 5.931 16.979 C 6.769 16.711 7.599 16.427 8.424 16.121 C 10.048 15.512 11.671 14.863 13.295 14.177 C 13.398 14.13 13.5 14.086 13.598 14.042 L 13.413 14.623 C 13.297 14.751 13.304 14.87 13.259 15.015 C 13.253 15.034 13.244 15.173 13.244 15.285 C 12.438 15.612 11.636 15.933 10.842 16.249 Z" fill="rgb(255,255,255)"></path></g></g></svg>
